<?xml version="1.0" encoding="UTF-8"?>
<svg id="Layer_2" data-name="Layer 2" xmlns="http://www.w3.org/2000/svg" viewBox="0 0 92.25 26.25">
  <defs>
    <style>
      .cls-1 {
        fill: #2d2d2d;
      }

      .cls-1, .cls-2 {
        stroke-width: 0px;
      }

      .cls-2 {
        fill: #5b2eee;
      }
    </style>
  </defs>
  <g id="Light_-_small" data-name="Light - small">
    <g>
      <polygon class="cls-1" points="30.46 19.78 38.66 19.78 38.66 7.82 30.46 7.82 30.46 17 32.21 17 32.21 9.66 36.97 9.66 36.97 17.94 30.46 17.94 30.46 19.78"/>
      <rect class="cls-1" x="41.44" y="7.95" width="8.39" height="1.7"/>
      <rect class="cls-1" x="41.44" y="13.04" width="8.39" height="1.7"/>
      <rect class="cls-1" x="41.44" y="18.13" width="8.39" height="1.7"/>
      <path class="cls-1" d="m52.28,7.82v12.01h1.84v-5.11h6.37v-6.89h-8.21Zm6.5,5.22h-4.75v-3.4h4.75v3.4Z"/>
      <polygon class="cls-1" points="71.3 7.82 63.12 7.82 63.12 14.72 69.5 14.72 69.5 17.94 62.98 17.94 62.98 19.83 71.3 19.83 71.3 12.89 64.94 12.89 64.94 9.66 71.37 9.66 71.37 7.82 71.3 7.82"/>
      <path class="cls-1" d="m74.09,7.82v12.01h1.84v-5.11h6.37v-6.89h-8.21Zm6.5,5.22h-4.75v-3.4h4.75v3.4Z"/>
      <rect class="cls-1" x="83.54" y="7.82" width="8.39" height="1.7"/>
      <rect class="cls-1" x="86.84" y="9.52" width="2.02" height="8.61"/>
      <rect class="cls-1" x="83.54" y="18.13" width="8.39" height="1.7"/>
    </g>
    <g>
      <path class="cls-2" d="m21.82,12.33s0,.06,0,.09c-.04.93-.82,1.68-1.76,1.68s-1.76-.79-1.76-1.76v-.44h.06c.2-.78.9-1.32,1.7-1.32s1.51.54,1.71,1.32h.06v.44Zm-1.14,0c0-.35-.28-.63-.63-.63s-.63.28-.63.63.28.63.63.63.63-.28.63-.63Z"/>
      <path class="cls-2" d="m16.47,11.89h1.82v.44h-1.76c0,.63-.34,1.22-.89,1.53s-1.22.31-1.77-.01l-1.51,1.51-.31-.31,1.47-1.47c-.65-.65-.69-1.7-.09-2.4l-1.04-1.04.31-.31,1.05,1.05c.47-.33,1.08-.41,1.62-.21s.95.65,1.1,1.21Zm-.92.44c0-.44-.35-.79-.79-.79s-.79.35-.79.79.35.79.79.79.79-.35.79-.79Z"/>
      <path class="cls-2" d="m12.35,15.37c.41.41.59.99.49,1.56s-.48,1.05-1,1.29c-.53.24-1.14.21-1.63-.09-.49-.29-.82-.81-.86-1.39v-.44h.02c.1-.57.48-1.05,1-1.29.52-.24,1.13-.21,1.63.09l.04-.04.31.31Zm-.34,1.25c0-.5-.41-.9-.9-.9s-.9.4-.9.9.41.9.9.9.9-.4.9-.9Z"/>
      <path class="cls-2" d="m11.14,7.99c-.51,0-.92.41-.92.91s.41.92.92.92.91-.41.91-.92-.41-.91-.91-.91Zm-.9-.61c.69-.41,1.57-.29,2.14.27s.68,1.45.27,2.14l.04.04-.31.31c-.69.69-1.81.69-2.49,0-.69-.69-.69-1.81,0-2.49l-1.46-1.46.31-.31,1.5,1.5Z"/>
      <path class="cls-2" d="m6.89,16.3h2.46v.44h-2.22c1.99,3.46,6.06,5.14,9.92,4.11,3.82-1.02,6.49-4.47,6.53-8.43h-1.76s0-.06,0-.09v-.44h1.75c-.17-3.43-2.31-6.44-5.49-7.73-3.18-1.29-6.82-.62-9.33,1.72l-.31.31h0c-2.61,2.69-3.24,6.75-1.54,10.11Zm-2.23.44H.25v-.44h4.23c-1.55-4.03-.62-8.58,2.39-11.67l.31-.31h0c3.07-2.9,7.54-3.79,11.49-2.29,3.95,1.5,6.69,5.14,7.06,9.35.37,4.21-1.71,8.26-5.34,10.43-3.63,2.16-8.18,2.05-11.71-.28-1.4,1.4-2.81,2.81-4.21,4.21-.34.35-.9.35-1.25,0-.62-.62-1.25-1.24-1.87-1.87-.34-.35-.34-.9,0-1.25,1.4-1.4,2.81-2.81,4.21-4.21-.35-.53-.65-1.08-.91-1.67Z"/>
      <path class="cls-2" d="m2.6,2.63H.25v-.44h2.25c-.06-.56.16-1.12.58-1.5.42-.37,1-.53,1.55-.41s1.01.5,1.24,1.02c.23.52.19,1.11-.1,1.6l1.41,1.41-.31.31-1.37-1.37c-.42.42-1.03.6-1.62.48-.58-.13-1.07-.54-1.28-1.1Zm2.54-.62c0-.49-.4-.89-.89-.89s-.89.4-.89.89.4.89.89.89.89-.4.89-.89Z"/>
    </g>
  </g>
</svg>